<?xml version="1.0" encoding="UTF-8"?>
<svg width="20px" height="20px" viewBox="0 0 20 20" version="1.1" xmlns="http://www.w3.org/2000/svg" xmlns:xlink="http://www.w3.org/1999/xlink">
    <title>1D40BFC6-7CF6-44A2-BE05-8CCC04140D40@2x</title>
    <defs>
        <path d="M364.696312,41.3116883 L356.366594,32.95671 L364.739696,24.6450216 C365.086768,24.2987013 365.086768,23.6926407 364.739696,23.2597403 C364.392625,22.9134199 363.785249,22.9134199 363.35141,23.2597403 L354.978308,31.6147186 L346.64859,23.2597403 C346.301518,22.9134199 345.694143,22.9134199 345.303688,23.2597403 C345.086768,23.4329004 345,23.6926407 345,23.952381 C345,24.2121212 345.086768,24.4285714 345.303688,24.6450216 L353.633406,33 L345.260304,41.2683983 C344.913232,41.6147186 344.913232,42.2207792 345.260304,42.6536797 C345.433839,42.8268398 345.694143,42.95671 345.911063,42.95671 C346.171367,42.95671 346.388286,42.8701299 346.561822,42.6969697 L354.934924,34.3852814 L363.264642,42.7402597 C363.438178,42.9134199 363.655098,43 363.915401,43 C364.175705,43 364.392625,42.9134199 364.566161,42.7835498 C365.043384,42.3506494 365.086768,41.7445887 364.696312,41.3116883 Z" id="path-1"></path>
    </defs>
    <g id="Discovery-126---UI-design-&amp;-prototype:-Quick-filters" stroke="none" stroke-width="1" fill="none" fill-rule="evenodd">
        <g id="12.Discovery-126-QF-4.View-Modal-Clear" transform="translate(-345.000000, -67.000000)">
            <g id="Pop-Up-Header" transform="translate(0.000000, 44.000000)">
                <mask id="mask-2" fill="white">
                    <use xlink:href="#path-1"></use>
                </mask>
                <use id="Close" fill="#ffffff" fill-rule="nonzero" xlink:href="#path-1"></use>
            </g>
        </g>
    </g>
</svg>